<svg width="46" height="40" viewBox="0 0 46 40" fill="none" xmlns="http://www.w3.org/2000/svg">
<g filter="url(#filter0_d)">
<path d="M12.9699 22.0411C13.6165 22.6803 14.3966 23 15.3105 23H31.8621C32.776 23 33.5562 22.6803 34.2025 22.0411C34.8488 21.4021 35.1721 20.6307 35.1721 19.7273H12C12.0002 20.6307 12.3235 21.4021 12.9699 22.0411Z" fill="#6D737A"/>
<path d="M12.9699 22.0411C13.6165 22.6803 14.3966 23 15.3105 23H31.8621C32.776 23 33.5562 22.6803 34.2025 22.0411C34.8488 21.4021 35.1721 20.6307 35.1721 19.7273H12C12.0002 20.6307 12.3235 21.4021 12.9699 22.0411Z" fill="url(#paint0_radial)" fill-opacity="0.9"/>
<path d="M18.2072 18.0909H27.3104C28.1034 18.0909 28.7844 17.8097 29.3535 17.2472C29.9224 16.6847 30.2069 16.0113 30.2069 15.2273V14.8183H31.0343C32.4051 14.8183 33.5756 14.339 34.5453 13.3801C35.5148 12.4213 36 11.2644 36 9.90931C36 8.55406 35.5148 7.39698 34.5453 6.43827C33.5756 5.47956 32.4051 5 31.0343 5H16.1381C15.9141 5 15.7201 5.08114 15.5563 5.24287C15.3925 5.40483 15.3106 5.59669 15.3106 5.81825V15.2272C15.3106 16.0113 15.5951 16.6846 16.164 17.2471C16.733 17.8097 17.4141 18.0909 18.2072 18.0909ZM30.2069 7.45479H31.0346C31.7243 7.45479 32.3105 7.69345 32.7931 8.17063C33.2757 8.64795 33.5172 9.22741 33.5172 9.90936C33.5172 10.5909 33.2757 11.1705 32.7931 11.648C32.3105 12.1252 31.7243 12.3639 31.0346 12.3639H30.2069V7.45479Z" fill="#6D737A"/>
<path d="M18.2072 18.0909H27.3104C28.1034 18.0909 28.7844 17.8097 29.3535 17.2472C29.9224 16.6847 30.2069 16.0113 30.2069 15.2273V14.8183H31.0343C32.4051 14.8183 33.5756 14.339 34.5453 13.3801C35.5148 12.4213 36 11.2644 36 9.90931C36 8.55406 35.5148 7.39698 34.5453 6.43827C33.5756 5.47956 32.4051 5 31.0343 5H16.1381C15.9141 5 15.7201 5.08114 15.5563 5.24287C15.3925 5.40483 15.3106 5.59669 15.3106 5.81825V15.2272C15.3106 16.0113 15.5951 16.6846 16.164 17.2471C16.733 17.8097 17.4141 18.0909 18.2072 18.0909ZM30.2069 7.45479H31.0346C31.7243 7.45479 32.3105 7.69345 32.7931 8.17063C33.2757 8.64795 33.5172 9.22741 33.5172 9.90936C33.5172 10.5909 33.2757 11.1705 32.7931 11.648C32.3105 12.1252 31.7243 12.3639 31.0346 12.3639H30.2069V7.45479Z" fill="url(#paint1_radial)" fill-opacity="0.9"/>
</g>
<defs>
<filter id="filter0_d" x="0" y="0" width="46" height="40" filterUnits="userSpaceOnUse" color-interpolation-filters="sRGB">
<feFlood flood-opacity="0" result="BackgroundImageFix"/>
<feColorMatrix in="SourceAlpha" type="matrix" values="0 0 0 0 0 0 0 0 0 0 0 0 0 0 0 0 0 0 127 0"/>
<feOffset dx="-1" dy="6"/>
<feGaussianBlur stdDeviation="5.5"/>
<feColorMatrix type="matrix" values="0 0 0 0 0.0623 0 0 0 0 0.070308 0 0 0 0 0.0777 0 0 0 0.1 0"/>
<feBlend mode="normal" in2="BackgroundImageFix" result="effect1_dropShadow"/>
<feBlend mode="normal" in="SourceGraphic" in2="effect1_dropShadow" result="shape"/>
</filter>
<radialGradient id="paint0_radial" cx="0" cy="0" r="1" gradientUnits="userSpaceOnUse" gradientTransform="translate(31.5 -18.5) rotate(108.677) scale(37.4733)">
<stop offset="0.226504" stop-color="#F26B0A"/>
<stop offset="0.837661" stop-color="#F26C0B" stop-opacity="0"/>
</radialGradient>
<radialGradient id="paint1_radial" cx="0" cy="0" r="1" gradientUnits="userSpaceOnUse" gradientTransform="translate(31.5 -18.5) rotate(108.677) scale(37.4733)">
<stop offset="0.226504" stop-color="#F26B0A"/>
<stop offset="0.837661" stop-color="#F26C0B" stop-opacity="0"/>
</radialGradient>
</defs>
</svg>
